<svg width="179" height="48" viewBox="0 0 179 48" fill="none" xmlns="http://www.w3.org/2000/svg">
<g clip-path="url(#clip0_44_266)">
<path d="M105.288 19.3965C105.288 20.3016 104.533 21.0354 103.602 21.0354C102.67 21.0354 101.915 20.3016 101.915 19.3965C101.915 18.4914 102.67 17.7576 103.602 17.7576C104.533 17.7576 105.288 18.4914 105.288 19.3965Z" fill="white"/>
<path d="M50.866 33.9539C51.8796 34.374 52.9825 34.584 54.1749 34.584C55.3673 34.584 56.433 34.3884 57.3719 33.9973C58.3258 33.6062 59.1306 33.092 59.7865 32.4546C60.4423 31.8028 60.9118 31.093 61.195 30.3253L58.4674 29.0868C58.1544 29.898 57.6254 30.5715 56.8801 31.1075C56.1348 31.629 55.233 31.8897 54.1749 31.8897C53.1315 31.8897 52.2074 31.6507 51.4025 31.1727C50.6126 30.6947 49.9942 30.0356 49.5469 29.1954C49.1148 28.3408 48.8986 27.3486 48.8986 26.2187C48.8986 25.0888 49.1148 24.1038 49.5469 23.2637C49.9942 22.4236 50.6126 21.7644 51.4025 21.2864C52.2074 20.8084 53.1315 20.5694 54.1749 20.5694C55.233 20.5694 56.1348 20.8374 56.8801 21.3733C57.6254 21.8948 58.1544 22.5612 58.4674 23.3723L61.195 22.1338C60.9118 21.3661 60.4423 20.6636 59.7865 20.0262C59.1306 19.3744 58.3258 18.8529 57.3719 18.4618C56.433 18.0707 55.3673 17.8751 54.1749 17.8751C52.9825 17.8751 51.8796 18.0852 50.866 18.5052C49.8525 18.9109 48.9656 19.4903 48.2055 20.2435C47.4603 20.9822 46.879 21.8659 46.4617 22.8943C46.0592 23.9083 45.858 25.0164 45.858 26.2187C45.858 27.421 46.0668 28.5291 46.4841 29.5431C46.9014 30.557 47.4827 31.4407 48.2279 32.1939C48.988 32.9471 49.8673 33.5338 50.866 33.9539Z" fill="white"/>
<path fill-rule="evenodd" clip-rule="evenodd" d="M64.9826 33.78C65.9662 34.316 67.0543 34.584 68.2467 34.584C69.4242 34.584 70.4973 34.316 71.4662 33.78C72.435 33.2441 73.2099 32.5126 73.7912 31.5855C74.3725 30.6585 74.6632 29.601 74.6632 28.4132C74.6632 27.211 74.3725 26.1535 73.7912 25.2409C73.2249 24.3139 72.4574 23.5824 71.4885 23.0464C70.5197 22.5104 69.4391 22.2425 68.2467 22.2425C67.0394 22.2425 65.9514 22.5104 64.9826 23.0464C64.0137 23.5824 63.2388 24.3139 62.6575 25.2409C62.0912 26.168 61.8079 27.2254 61.8079 28.4132C61.8079 29.601 62.0912 30.6585 62.6575 31.5855C63.2388 32.5126 64.0137 33.2441 64.9826 33.78ZM69.9683 31.5203C69.4763 31.8245 68.9026 31.9766 68.2467 31.9766C67.5759 31.9766 66.9872 31.8245 66.4806 31.5203C65.9738 31.2161 65.5713 30.7961 65.2732 30.2601C64.99 29.7096 64.8485 29.094 64.8485 28.4132C64.8485 27.7179 64.99 27.1096 65.2732 26.5881C65.5713 26.0521 65.9738 25.632 66.4806 25.3279C66.9872 25.0092 67.5759 24.8498 68.2467 24.8498C68.9026 24.8498 69.4763 25.0092 69.9683 25.3279C70.4749 25.632 70.87 26.0521 71.1531 26.5881C71.4512 27.1096 71.6002 27.7179 71.6002 28.4132C71.6002 29.094 71.4512 29.7096 71.1531 30.2601C70.87 30.7961 70.4749 31.2161 69.9683 31.5203Z" fill="white"/>
<path fill-rule="evenodd" clip-rule="evenodd" d="M81.937 34.584C80.7446 34.584 79.6565 34.316 78.6728 33.78C77.704 33.2441 76.9289 32.5126 76.3477 31.5855C75.7812 30.6585 75.4981 29.601 75.4981 28.4132C75.4981 27.2254 75.7812 26.168 76.3477 25.2409C76.9289 24.3139 77.704 23.5824 78.6728 23.0464C79.6417 22.5104 80.7296 22.2425 81.937 22.2425C83.1294 22.2425 84.2099 22.5104 85.1788 23.0464C86.1476 23.5824 86.9151 24.3139 87.4815 25.2409C88.0628 26.1535 88.3534 27.211 88.3534 28.4132C88.3534 29.601 88.0628 30.6585 87.4815 31.5855C86.9002 32.5126 86.1252 33.2441 85.1564 33.78C84.1875 34.316 83.1144 34.584 81.937 34.584ZM81.937 31.9766C82.5928 31.9766 83.1665 31.8245 83.6584 31.5203C84.1652 31.2161 84.5601 30.7961 84.8434 30.2601C85.1414 29.7096 85.2905 29.094 85.2905 28.4132C85.2905 27.7179 85.1414 27.1096 84.8434 26.5881C84.5601 26.0521 84.1652 25.632 83.6584 25.3279C83.1665 25.0092 82.5928 24.8498 81.937 24.8498C81.2662 24.8498 80.6775 25.0092 80.1707 25.3279C79.664 25.632 79.2615 26.0521 78.9635 26.5881C78.6802 27.1096 78.5386 27.7179 78.5386 28.4132C78.5386 29.094 78.6802 29.7096 78.9635 30.2601C79.2615 30.7961 79.664 31.2161 80.1707 31.5203C80.6775 31.8245 81.2662 31.9766 81.937 31.9766Z" fill="white"/>
<path d="M89.6802 17.8751V34.3232H92.609V30.7163L94.1847 29.073L97.5945 34.3232H100.948L96.3649 27.2616L100.859 22.5032H97.2145L92.609 27.189V17.8751H89.6802Z" fill="white"/>
<path d="M102.136 34.3232V22.5032H105.065V34.3232H102.136Z" fill="white"/>
<path d="M107.099 22.5032V34.3232H110.027V27.392C110.027 26.8705 110.132 26.4215 110.34 26.0449C110.549 25.6682 110.84 25.3785 111.212 25.1757C111.585 24.9585 112.01 24.8498 112.487 24.8498C112.978 24.8498 113.403 24.9585 113.761 25.1757C114.134 25.3785 114.424 25.6682 114.633 26.0449C114.842 26.4215 114.946 26.8705 114.946 27.392V34.3232H117.875V26.7185C117.875 25.8348 117.681 25.0599 117.293 24.3935C116.906 23.7127 116.362 23.184 115.661 22.8074C114.976 22.4308 114.186 22.2425 113.292 22.2425C112.427 22.2425 111.667 22.4308 111.011 22.8074C110.518 23.0863 110.13 23.4683 109.849 23.9534V22.5032H107.099Z" fill="white"/>
<path d="M127.595 34.584C126.403 34.584 125.3 34.374 124.286 33.9539C123.273 33.5338 122.386 32.9471 121.626 32.1939C120.865 31.4407 120.269 30.557 119.837 29.5431C119.42 28.5291 119.211 27.421 119.211 26.2187C119.211 25.0164 119.412 23.9083 119.815 22.8943C120.232 21.8659 120.813 20.9822 121.559 20.2435C122.319 19.4903 123.206 18.9109 124.219 18.5052C125.233 18.0852 126.336 17.8751 127.528 17.8751C128.72 17.8751 129.786 18.0707 130.725 18.4618C131.679 18.8529 132.484 19.3744 133.14 20.0262C133.795 20.6636 134.265 21.3661 134.548 22.1338L131.843 23.394C131.53 22.5539 131.001 21.8731 130.255 21.3516C129.51 20.8302 128.601 20.5694 127.528 20.5694C126.485 20.5694 125.561 20.8084 124.756 21.2864C123.966 21.7644 123.347 22.4236 122.9 23.2637C122.468 24.1038 122.252 25.0888 122.252 26.2187C122.252 27.3486 122.475 28.3408 122.922 29.1954C123.384 30.0356 124.018 30.6947 124.823 31.1727C125.628 31.6507 126.552 31.8897 127.595 31.8897C128.445 31.8897 129.227 31.7303 129.943 31.4117C130.658 31.0785 131.232 30.615 131.664 30.0211C132.096 29.4127 132.312 28.6957 132.312 27.87V27.8048H127.528V25.3061H135.353V26.9357C135.353 28.1814 135.137 29.2823 134.705 30.2384C134.272 31.1944 133.684 31.9984 132.938 32.6502C132.208 33.2875 131.381 33.7728 130.457 34.1059C129.533 34.4246 128.579 34.584 127.595 34.584Z" fill="white"/>
<path fill-rule="evenodd" clip-rule="evenodd" d="M139.1 33.7583C140.039 34.3088 141.135 34.584 142.387 34.584C143.222 34.584 143.982 34.4608 144.667 34.2146C145.368 33.9683 145.971 33.628 146.478 33.1934C146.985 32.7588 147.357 32.2591 147.596 31.6941L145.226 30.5643C144.958 31.0278 144.585 31.3972 144.108 31.6724C143.646 31.9476 143.08 32.0852 142.409 32.0852C141.738 32.0852 141.142 31.9332 140.621 31.629C140.114 31.3248 139.726 30.8975 139.458 30.347C139.303 30.0004 139.206 29.6238 139.168 29.2172H147.931C147.991 29.0578 148.028 28.8695 148.043 28.6522C148.056 28.5577 148.066 28.4646 148.074 28.3728C148.076 28.3445 148.078 28.3162 148.08 28.2881L148.082 28.2509L148.085 28.182L148.086 28.1465L148.087 28.1127C148.088 28.0823 148.088 28.0521 148.088 28.0221C148.088 27.2254 147.954 26.4867 147.685 25.8058C147.417 25.1106 147.03 24.4949 146.523 23.959C146.016 23.423 145.398 23.0029 144.667 22.6988C143.952 22.3946 143.117 22.2425 142.163 22.2425C141.031 22.2425 140.002 22.5104 139.078 23.0464C138.169 23.5824 137.446 24.3139 136.909 25.2409C136.388 26.1535 136.127 27.2037 136.127 28.3915C136.127 29.5358 136.388 30.5788 136.909 31.5203C137.431 32.4619 138.161 33.2079 139.1 33.7583ZM139.229 27.0444C139.276 26.7949 139.345 26.5632 139.436 26.3491C139.689 25.7696 140.054 25.3351 140.531 25.0454C141.008 24.7412 141.552 24.5891 142.163 24.5891C142.804 24.5891 143.348 24.7412 143.795 25.0454C144.257 25.3496 144.585 25.7624 144.779 26.2839C144.874 26.5222 144.934 26.7757 144.958 27.0444H139.229Z" fill="white"/>
<path d="M149.414 34.3232V22.5032H152.164V23.9536C152.445 23.4684 152.833 23.0863 153.326 22.8074C153.982 22.4308 154.742 22.2425 155.607 22.2425C156.501 22.2425 157.291 22.4308 157.977 22.8074C158.677 23.184 159.221 23.7127 159.609 24.3935C159.996 25.0599 160.19 25.8348 160.19 26.7185V34.3232H157.261V27.392C157.261 26.8705 157.157 26.4215 156.948 26.0449C156.739 25.6682 156.449 25.3785 156.076 25.1757C155.718 24.9585 155.294 24.8498 154.802 24.8498C154.325 24.8498 153.9 24.9585 153.527 25.1757C153.155 25.3785 152.864 25.6682 152.656 26.0449C152.447 26.4215 152.343 26.8705 152.343 27.392V34.3232H149.414Z" fill="white"/>
<path d="M162.219 22.5032V34.3232H165.148V22.5032H162.219Z" fill="white"/>
<path fill-rule="evenodd" clip-rule="evenodd" d="M172.726 34.584C171.474 34.584 170.379 34.3088 169.44 33.7583C168.501 33.2079 167.77 32.4619 167.249 31.5203C166.727 30.5788 166.466 29.5358 166.466 28.3915C166.466 27.2037 166.727 26.1535 167.249 25.2409C167.785 24.3139 168.508 23.5824 169.417 23.0464C170.341 22.5104 171.37 22.2425 172.502 22.2425C173.456 22.2425 174.291 22.3946 175.007 22.6988C175.737 23.0029 176.355 23.423 176.862 23.959C177.369 24.4949 177.756 25.1106 178.025 25.8058C178.293 26.4867 178.427 27.2254 178.427 28.0221C178.427 28.2249 178.412 28.4349 178.382 28.6522C178.376 28.7503 178.365 28.8424 178.349 28.9287C178.329 29.0335 178.303 29.1297 178.271 29.2172H169.508C169.545 29.6238 169.642 30.0004 169.797 30.347C170.066 30.8975 170.453 31.3248 170.96 31.629C171.482 31.9332 172.078 32.0852 172.748 32.0852C173.419 32.0852 173.986 31.9476 174.448 31.6724C174.924 31.3972 175.297 31.0278 175.565 30.5643L177.935 31.6941C177.697 32.2591 177.324 32.7588 176.817 33.1934C176.311 33.628 175.707 33.9683 175.007 34.2146C174.321 34.4608 173.561 34.584 172.726 34.584ZM169.775 26.3491C169.685 26.5632 169.616 26.7949 169.568 27.0444H175.297C175.273 26.7757 175.214 26.5222 175.118 26.2839C174.924 25.7624 174.597 25.3496 174.135 25.0454C173.687 24.7412 173.143 24.5891 172.502 24.5891C171.891 24.5891 171.347 24.7412 170.87 25.0454C170.394 25.3351 170.028 25.7696 169.775 26.3491Z" fill="white"/>
<path d="M163.675 21.0322C164.605 21.0322 165.358 20.2999 165.358 19.3965C165.358 18.4932 164.605 17.7609 163.675 17.7609C162.746 17.7609 161.992 18.4932 161.992 19.3965C161.992 20.2999 162.746 21.0322 163.675 21.0322Z" fill="white"/>
<path d="M14.865 15.3634C14.2472 15.3634 13.7368 15.049 13.7368 14.6822C13.7368 14.3154 14.274 13.8961 14.8919 13.8961C15.5097 13.8961 16.3425 14.2892 16.3425 14.6822C16.3425 15.049 15.4829 15.3634 14.865 15.3634ZM13.8979 13.4769C13.0383 13.9224 12.7159 14.394 12.7159 14.918C12.7159 15.442 13.5487 16.228 14.5427 16.228C15.5366 16.228 17.1215 16.228 17.3902 14.394C17.632 12.5075 15.0531 12.9005 13.8979 13.4769ZM18.3841 30.3501C33.159 29.4331 36.302 26.3414 37.2154 25.9222C38.6929 25.2148 41.6747 21.2585 37.0005 20.4987C29.828 19.3197 29.8817 25.3982 34.0187 30.6645C38.1556 35.957 35.4156 44.7866 20.7212 42.874C6.02694 40.9875 -2.11268 34.3326 8.36406 23.5904C8.36406 23.5904 12.5816 20.7607 7.02089 19.0315C1.48702 17.3546 1.19152 25.0576 12.6085 25.241C24.0255 25.4506 34.0724 26.2104 28.5385 19.6341C23.0046 13.0577 7.31639 17.7476 10.9967 21.7301C14.6232 25.7126 17.0678 13.4507 26.0402 19.7651C35.0126 26.0794 3.23314 25.5554 4.41514 20.8131C5.62399 16.0446 8.65956 23.538 4.97927 25.9484C1.29898 28.3589 -6.51829 42.1141 14.677 44.0006C35.8722 45.887 46.7251 39.7823 35.2544 28.3065C35.2544 28.3065 31.2786 24.9266 34.2336 22.3851C36.0334 20.8393 37.5109 22.8043 35.9797 23.9048C35.335 24.3502 22.7091 28.2803 11.8026 26.8392C10.0296 26.6034 6.72539 26.027 6.40303 26.7344C6.18812 27.206 7.37012 27.992 7.69248 28.2017C10.8086 30.2715 16.1545 30.5073 18.3841 30.3501ZM32.9978 18.9791C33.0784 18.9005 34.7977 17.0402 34.2067 15.835C33.8306 15.1014 32.6755 14.7346 32.0039 14.525C30.9831 14.2106 30.5533 14.3154 30.3384 13.9486C30.016 13.3721 30.6876 12.4289 31.1711 11.9311C31.4129 11.6953 32.3263 10.7783 33.4545 11.0403C34.2604 11.2237 35.0395 11.9573 34.932 12.5337C34.8246 13.1887 33.5082 13.3983 33.5888 13.8175C33.6157 14.001 33.8575 14.0796 34.2336 14.2368C36.5438 15.311 36.7587 15.966 33.7769 18.9529C30.7682 21.9659 32.9978 18.9791 32.9978 18.9791ZM8.14916 17.0402C6.75226 15.8874 5.8389 16.0446 5.05986 15.311C3.95846 14.263 4.33455 12.5599 5.43595 11.4333C6.9403 9.88746 10.1639 9.15385 11.1041 9.70406C11.6683 10.0447 11.6145 10.8831 11.0504 11.3547C10.1908 12.0621 8.76701 11.2499 7.63875 12.1931C7.07462 12.6647 6.83285 13.4245 6.85971 14.0534C6.9403 14.9966 7.69248 15.6778 8.09543 16.0184C8.95506 16.7782 9.65351 16.8568 9.84155 17.5118C9.92214 17.8262 9.86842 18.2192 9.65351 18.2716C9.35801 18.3502 8.95506 17.6952 8.14916 17.0402ZM29.5862 18.4812C29.5325 17.5904 29.2907 16.3066 28.3505 15.3372C26.4432 13.3459 23.6494 14.6822 22.3331 13.1363C20.4526 10.9093 23.0852 4.28054 25.9596 4.09714C27.0073 4.01854 28.2162 4.83076 28.8877 5.61677C29.8011 6.6386 30.0429 7.31981 29.8548 7.81762C29.3444 9.10145 25.5567 7.45081 23.6762 9.33725C22.9509 10.0709 22.4942 11.3547 22.9241 12.1669C23.5956 13.4245 25.879 12.3503 28.0012 13.7389C30.204 15.2062 30.9294 18.5074 30.419 18.8481C30.2309 18.9267 29.8817 18.7171 29.5862 18.4812Z" fill="white"/>
</g>
<defs>
<clipPath id="clip0_44_266">
<rect width="178.427" height="47.4346" fill="white" transform="translate(0 0.282654)"/>
</clipPath>
</defs>
</svg>
