<svg width="102" height="48" viewBox="0 0 102 48" fill="none" xmlns="http://www.w3.org/2000/svg">
<g clip-path="url(#clip0_44_270)">
<path fill-rule="evenodd" clip-rule="evenodd" d="M0.915344 15.1843V33.1052H4.77671V26.1675H13.1514V22.5831H4.77671V18.7685H14.2798V15.1843H0.915344Z" fill="white"/>
<path fill-rule="evenodd" clip-rule="evenodd" d="M25.2114 33.3867C20.4975 33.3867 17.614 30.6987 17.614 25.4248V15.1843H21.4754V25.3224C21.4754 28.2412 22.9045 29.7514 25.2617 29.7514C27.6184 29.7514 29.0477 28.292 29.0477 25.4503V15.1843H32.9091V25.2968C32.9091 30.7241 29.9253 33.3867 25.2114 33.3867" fill="white"/>
<path fill-rule="evenodd" clip-rule="evenodd" d="M43.6158 33.3608C40.9579 33.3608 38.275 32.4135 36.1687 30.4936L38.4506 27.7032C40.0303 29.0344 41.6851 29.8793 43.6911 29.8793C45.2708 29.8793 46.2234 29.239 46.2234 28.1895V28.1382C46.2234 27.14 45.6218 26.6277 42.688 25.8596C39.1526 24.9381 36.8709 23.9397 36.8709 20.3811V20.3302C36.8709 17.0784 39.4285 14.928 43.0139 14.928C45.5715 14.928 47.7531 15.7474 49.5332 17.2063L47.5272 20.1765C45.9727 19.0756 44.4433 18.41 42.9639 18.41C41.4845 18.41 40.7072 19.1012 40.7072 19.9714V20.0227C40.7072 21.2004 41.4595 21.5843 44.4933 22.3781C48.0538 23.3254 50.0597 24.6309 50.0597 27.754V27.8056C50.0597 31.364 47.4021 33.3608 43.6158 33.3608" fill="white"/>
<mask id="mask0_44_270" style="mask-type:luminance" maskUnits="userSpaceOnUse" x="0" y="14" width="102" height="20">
<path fill-rule="evenodd" clip-rule="evenodd" d="M0.915283 33.4124H101.343V14.8779H0.915283V33.4124Z" fill="white"/>
</mask>
<g mask="url(#mask0_44_270)">
<path fill-rule="evenodd" clip-rule="evenodd" d="M54.1211 33.1052H57.9825V15.1843H54.1211V33.1052Z" fill="white"/>
<path fill-rule="evenodd" clip-rule="evenodd" d="M71.4739 29.7756C68.3648 29.7756 66.1564 27.2181 66.1564 24.1431V24.0913C66.1564 21.0201 68.3138 18.5105 71.4234 18.5105C72.8122 18.5105 74.0216 19.0244 74.9345 19.8648H79.7919C78.3132 16.9012 75.2699 14.8779 71.4739 14.8779C66.055 14.8779 62.1186 19.0484 62.1186 24.1431V24.1948C62.1186 29.2895 66.0082 33.4124 71.4234 33.4124C75.1999 33.4124 78.2548 31.3849 79.7605 28.4251H74.9852C74.0839 29.2655 72.8785 29.7756 71.4739 29.7756" fill="white"/>
<path fill-rule="evenodd" clip-rule="evenodd" d="M76.4137 24.8633C76.3434 25.3413 76.2185 26.1938 76.0429 26.6201H80.2292C80.3422 26.1779 80.4241 25.3254 80.471 24.8633H76.4137Z" fill="white"/>
<path fill-rule="evenodd" clip-rule="evenodd" d="M82.1952 21.6505H76.0116C76.2106 22.1164 76.3511 23.0128 76.4214 23.5305H82.4371C82.398 23.0247 82.3161 22.1285 82.1952 21.6505" fill="white"/>
<path fill-rule="evenodd" clip-rule="evenodd" d="M98.0583 33.1052L89.5581 21.7126V33.1052H85.747V15.1843H89.3075L97.5317 26.2184V15.1843H101.343V33.1052H98.0583Z" fill="white"/>
</g>
</g>
<defs>
<clipPath id="clip0_44_270">
<rect width="100.342" height="47.4346" fill="white" transform="translate(0.915283 0.282654)"/>
</clipPath>
</defs>
</svg>
