<svg width="195" height="48" viewBox="0 0 195 48" fill="none" xmlns="http://www.w3.org/2000/svg">
<g clip-path="url(#clip0_44_282)">
<path d="M0.219574 25.7037C0.219574 26.8936 0.439687 28.0717 0.867345 29.171C1.295 30.2703 1.92183 31.2691 2.71204 32.1104C3.50225 32.9517 4.44036 33.6191 5.47282 34.0744C6.50528 34.5298 7.61186 34.7641 8.72939 34.7641C9.84691 34.7641 10.9535 34.5298 11.9859 34.0744C13.0184 33.6191 13.9565 32.9517 14.7467 32.1104C15.5369 31.2691 16.1638 30.2703 16.5914 29.171C17.0191 28.0717 17.2392 26.8936 17.2392 25.7037L0.219574 25.7037Z" fill="white"/>
<path d="M4.01652 23.758C1.9193 23.758 0.219178 21.9479 0.219178 19.715L0.219177 11.6233C0.219177 9.39039 1.9193 7.58026 4.01651 7.58026C6.11373 7.58026 7.81385 9.39039 7.81385 11.6233L7.81385 19.715C7.81385 21.9479 6.11373 23.758 4.01652 23.758Z" fill="white"/>
<path d="M17.2393 19.7218C17.2393 21.9555 15.5386 23.7663 13.4406 23.7663C11.3427 23.7663 9.64194 21.9555 9.64194 19.7218C9.64194 17.4881 11.3427 15.6774 13.4406 15.6774C15.5386 15.6774 17.2393 17.4881 17.2393 19.7218Z" fill="white"/>
<path d="M34.3184 18.4141C32.7395 18.4141 31.3861 18.8644 30.2583 19.7349V12.4623H26.9877V32.9434H30.2583V31.9528C31.3861 32.8234 32.7395 33.2737 34.3184 33.2737C36.1793 33.2737 37.7583 32.5532 39.0552 31.1123C40.3804 29.6413 41.0289 27.9002 41.0289 25.8288C41.0289 23.7575 40.3804 22.0164 39.0552 20.5755C37.7583 19.1345 36.1793 18.4141 34.3184 18.4141ZM33.8391 30.2717C32.2884 30.2717 31.1042 29.6113 30.2583 28.2904V23.3673C31.1324 22.0764 32.3166 21.416 33.8391 21.416C34.9669 21.416 35.8974 21.8663 36.6586 22.7369C37.4199 23.6074 37.7864 24.6281 37.7864 25.8288C37.7864 27.0596 37.4199 28.1103 36.6586 28.9809C35.8974 29.8514 34.9669 30.2717 33.8391 30.2717Z" fill="white"/>
<path d="M45.7583 18.7443H42.4876V32.9434H45.7583V24.1177C46.9143 22.6168 48.5214 21.8363 50.6078 21.7462V18.4741C48.6342 18.4741 47.0271 19.1645 45.7583 20.5454V18.7443Z" fill="white"/>
<path d="M65.3599 18.7443H62.1174V19.7349C60.9614 18.8644 59.6081 18.4141 58.0291 18.4141C56.1682 18.4141 54.5893 19.1345 53.2641 20.6055C51.9672 22.0464 51.3187 23.7875 51.3187 25.8589C51.3187 27.9302 51.9672 29.6713 53.2641 31.1123C54.5893 32.5532 56.1682 33.2737 58.0291 33.2737C59.6081 33.2737 60.9614 32.8234 62.1174 31.9528V32.9434H65.3599V18.7443ZM58.5084 30.2717C57.3806 30.2717 56.4502 29.8514 55.6889 28.9809C54.9277 28.1103 54.5611 27.0596 54.5611 25.8589C54.5611 24.6581 54.9277 23.6074 55.6889 22.7369C56.4502 21.8663 57.3806 21.416 58.5084 21.416C60.0592 21.416 61.2716 22.0764 62.1174 23.4273V28.2604C61.2716 29.6113 60.0592 30.2717 58.5084 30.2717Z" fill="white"/>
<path d="M67.2745 14.5937C67.2745 15.7645 68.1767 16.6651 69.3045 16.6651C70.4323 16.6651 71.3346 15.7645 71.3346 14.5937C71.3346 13.3929 70.4323 12.4623 69.3045 12.4623C68.1767 12.4623 67.2745 13.3929 67.2745 14.5937ZM70.9398 18.7443H67.6974V32.9434H70.9398V18.7443Z" fill="white"/>
<path d="M80.8871 18.294C79.3645 18.294 77.983 18.8343 76.7706 19.915V18.7443H73.4999V32.9434H76.7706V23.4873C77.8138 22.1365 78.9698 21.446 80.2104 21.446C82.2404 21.446 83.481 22.8269 83.481 25.3185V32.9434H86.7235V25.1084C86.7235 23.037 86.1878 21.386 85.1164 20.1552C84.0449 18.9244 82.6352 18.294 80.8871 18.294Z" fill="white"/>
<path d="M88.6098 14.5937C88.6098 15.7645 89.512 16.6651 90.6398 16.6651C91.7676 16.6651 92.6699 15.7645 92.6699 14.5937C92.6699 13.3929 91.7676 12.4623 90.6398 12.4623C89.512 12.4623 88.6098 13.3929 88.6098 14.5937ZM92.2752 18.7443H89.0327V32.9434H92.2752V18.7443Z" fill="white"/>
<path d="M101.915 18.294C100.392 18.294 99.0106 18.8343 97.7982 19.915V18.7443H94.5276V32.9434H97.7982V23.4873C98.8415 22.1365 99.9975 21.446 101.238 21.446C103.268 21.446 104.509 22.8269 104.509 25.3185V32.9434H107.751V25.1084C107.751 23.037 107.215 21.386 106.144 20.1552C105.073 18.9244 103.663 18.294 101.915 18.294Z" fill="white"/>
<path d="M123.597 18.7443H120.355V19.5248C119.199 18.6542 117.845 18.2039 116.238 18.2039C114.349 18.2039 112.77 18.8944 111.473 20.2753C110.204 21.6261 109.556 23.3673 109.556 25.4686C109.556 27.3598 110.204 28.9809 111.501 30.3918C112.826 31.8027 114.405 32.4931 116.238 32.4931C117.845 32.4931 119.199 32.0429 120.355 31.1723V32.9434C120.355 35.435 118.945 36.876 116.83 36.876C114.828 36.876 113.475 35.7953 113.249 34.1442H109.951C110.092 35.8553 110.825 37.2662 112.093 38.3769C113.362 39.4877 114.941 40.028 116.83 40.028C118.832 40.028 120.467 39.3676 121.708 38.1068C122.977 36.8159 123.597 35.1349 123.597 32.9434V18.7443ZM116.717 29.4912C115.618 29.4912 114.687 29.0709 113.926 28.2604C113.165 27.4199 112.798 26.4893 112.798 25.4686C112.798 24.2378 113.165 23.2172 113.898 22.4066C114.631 21.5961 115.561 21.1758 116.717 21.1758C118.268 21.1758 119.481 21.8663 120.355 23.2172V27.4799C119.509 28.8308 118.296 29.4912 116.717 29.4912Z" fill="white"/>
<path d="M132.576 30.1516C130.321 30.1516 128.742 28.2904 128.742 25.8589C128.742 23.4273 130.321 21.5661 132.576 21.5661C134.24 21.5661 135.48 22.5267 135.79 24.0577H139.117C138.92 22.4066 138.187 21.0558 136.946 20.0051C135.734 18.9544 134.268 18.4141 132.576 18.4141C130.574 18.4141 128.883 19.1345 127.529 20.5454C126.176 21.9563 125.499 23.7275 125.499 25.8589C125.499 27.9602 126.176 29.7314 127.529 31.1423C128.883 32.5532 130.574 33.2737 132.576 33.2737C134.296 33.2737 135.762 32.7633 136.975 31.7126C138.187 30.662 138.92 29.2811 139.117 27.63H135.79C135.48 29.161 134.24 30.1516 132.576 30.1516Z" fill="white"/>
<path d="M154.077 18.7443H150.834V19.7349C149.678 18.8644 148.325 18.4141 146.746 18.4141C144.885 18.4141 143.306 19.1345 141.981 20.6055C140.684 22.0464 140.035 23.7875 140.035 25.8589C140.035 27.9302 140.684 29.6713 141.981 31.1123C143.306 32.5532 144.885 33.2737 146.746 33.2737C148.325 33.2737 149.678 32.8234 150.834 31.9528V32.9434H154.077V18.7443ZM147.225 30.2717C146.097 30.2717 145.167 29.8514 144.406 28.9809C143.644 28.1103 143.278 27.0596 143.278 25.8589C143.278 24.6581 143.644 23.6074 144.406 22.7369C145.167 21.8663 146.097 21.416 147.225 21.416C148.776 21.416 149.988 22.0764 150.834 23.4273V28.2604C149.988 29.6113 148.776 30.2717 147.225 30.2717Z" fill="white"/>
<path d="M172.671 18.294C170.726 18.294 169.062 19.0144 167.653 20.4554C166.553 19.0144 165.115 18.294 163.311 18.294C161.873 18.294 160.688 18.7743 159.73 19.7349V18.7443H156.459V32.9434H159.73V23.3372C160.604 22.0764 161.562 21.446 162.634 21.446C164.664 21.446 165.848 22.8269 165.848 25.3185V32.9434H169.091V25.1084C169.091 24.508 169.034 23.9376 168.921 23.3973C169.767 22.1064 170.782 21.446 171.995 21.446C174.053 21.446 175.209 22.8269 175.209 25.3185V32.9434H178.48V25.1084C178.48 23.0971 177.916 21.446 176.816 20.1852C175.716 18.9244 174.335 18.294 172.671 18.294Z" fill="white"/>
<path d="M187.991 18.4141C186.412 18.4141 185.058 18.8644 183.931 19.7349V18.7443H180.66V40.058H183.931V31.9528C185.058 32.8234 186.412 33.2737 187.991 33.2737C189.852 33.2737 191.431 32.5532 192.727 31.1123C194.053 29.6713 194.701 27.9302 194.701 25.8589C194.701 23.7875 194.024 22.0464 192.727 20.6055C191.402 19.1345 189.852 18.4141 187.991 18.4141ZM187.511 30.2717C185.961 30.2717 184.776 29.6113 183.931 28.2904V23.3973C184.776 22.0764 185.961 21.416 187.511 21.416C188.639 21.416 189.57 21.8663 190.331 22.7369C191.092 23.6074 191.459 24.6281 191.459 25.8589C191.459 27.0596 191.092 28.1103 190.331 28.9809C189.57 29.8514 188.639 30.2717 187.511 30.2717Z" fill="white"/>
</g>
<defs>
<clipPath id="clip0_44_282">
<rect width="194.482" height="47.4346" fill="white" transform="translate(0.219177 0.282654)"/>
</clipPath>
</defs>
</svg>
