<svg width="128" height="48" viewBox="0 0 128 48" fill="none" xmlns="http://www.w3.org/2000/svg">
<g clip-path="url(#clip0_44_290)">
<g clip-path="url(#clip1_44_290)">
<path d="M47.3768 27.8641C47.7915 28.8231 48.284 29.4193 49.243 29.497V30.3264H42.2448V29.497C43.2557 29.4452 43.7222 28.8231 43.3594 27.8641L42.1412 24.8057H35.4541L34.3136 27.8641C33.9508 28.875 34.3395 29.4193 35.3245 29.497V30.3264H30.8664V29.497C31.8254 29.4193 32.3438 28.849 32.6807 27.8641L37.4757 14.8528C37.8645 13.8419 37.709 13.0644 36.6723 12.9866V12.1831H40.8193L47.3768 27.8641ZM35.9984 23.3283H41.545L38.6939 16.0191L35.9984 23.3283Z" fill="white"/>
<path d="M56.9284 28.0974C61.6975 28.0455 64.0561 29.0045 63.9006 31.9593C63.7451 34.8882 60.9458 37.2986 56.721 37.2986C52.5481 37.2986 49.36 35.9768 49.6451 33.2034C49.7747 32.063 50.6819 31.104 52.1593 30.4819C50.656 29.9117 49.8266 28.9527 50.1894 27.6568C50.5523 26.4645 52.0815 25.8943 53.3256 25.661C52.1852 24.8834 51.4595 23.7171 51.4595 22.1878C51.4595 19.3886 53.9736 17.8075 56.721 17.8075C57.68 17.8075 58.6131 17.989 59.4166 18.3518C59.5203 17.8075 59.6758 17.2373 59.935 16.6671C60.583 15.2156 62.3454 14.5936 63.123 15.8118C63.7192 16.7449 62.9157 18.1445 61.6197 17.9371C60.9977 17.8335 60.5311 17.8594 60.3497 18.1963C60.246 18.3518 60.1942 18.5592 60.1683 18.7925C61.2569 19.5441 61.9826 20.7105 61.9826 22.1878C61.9826 25.013 59.4425 26.62 56.721 26.62C55.8916 26.62 55.0622 26.4645 54.3365 26.1794C53.6367 26.309 52.6777 26.5682 52.6258 27.1384C52.574 27.8123 53.4034 28.1233 56.9284 28.0974ZM56.721 18.7147C55.4251 18.7147 54.6734 19.9588 54.6734 22.1878C54.6734 24.4428 55.4251 25.6869 56.721 25.6869C57.9911 25.6869 58.7686 24.4428 58.7686 22.1878C58.7686 19.9588 57.9911 18.7147 56.721 18.7147ZM61.0236 33.2812C61.1791 31.2595 59.0797 31.1558 56.5914 31.1558C55.6324 31.1558 54.6993 31.0781 53.8699 30.9485C53.1701 31.415 52.6258 32.1407 52.5999 33.2812C52.5221 35.6917 54.803 36.4174 56.8765 36.4174C58.9241 36.4174 60.8681 35.3029 61.0236 33.2812Z" fill="white"/>
<path d="M75.8195 23.6134V24.0022C67.4736 24.0022 67.4736 24.0022 67.4736 24.0022C67.8105 29.1082 73.0721 29.4193 75.1974 27.0088L75.664 27.3976C74.7568 29.1341 72.8906 30.5856 70.4543 30.5856C67.007 30.5856 63.819 28.3566 63.819 24.0022C63.819 20.1662 66.4886 17.8075 70.221 17.8075C73.9274 17.8075 75.8713 20.4254 75.8195 23.6134ZM70.1691 18.6369C68.6658 18.6888 67.6032 20.2698 67.4476 22.6803H72.4759C72.5019 20.8919 72.0612 18.5851 70.1691 18.6369Z" fill="white"/>
<path d="M98.2525 12.1831H102.322V13.0126C101.415 13.0644 101 13.4791 100.689 14.464L95.6606 30.3265H93.8203L89.4659 17.0041L85.1375 30.3265H83.2972L77.8024 14.4122C77.4395 13.3495 77.1285 13.0903 76.1436 13.0126V12.1831H82.8566V13.0126C82.0272 13.0644 81.5606 13.7642 81.8976 14.8269L85.2411 25.2204L89.4918 12.1831H91.5654L95.7643 25.1686L99.0819 14.6195C99.4448 13.4791 99.1337 13.0385 98.2525 13.0126V12.1831Z" fill="white"/>
<path d="M112.896 23.6134V24.0022C104.55 24.0022 104.55 24.0022 104.55 24.0022C104.887 29.1083 110.148 29.4193 112.274 27.0088L112.74 27.3976C111.833 29.1342 109.967 30.5856 107.53 30.5856C104.083 30.5856 100.895 28.3566 100.895 24.0022C100.895 20.1662 103.565 17.8076 107.297 17.8076C111.004 17.8076 112.948 20.4254 112.896 23.6134ZM107.245 18.637C105.742 18.6888 104.679 20.2699 104.524 22.6803H109.552C109.578 20.8919 109.137 18.5851 107.245 18.637Z" fill="white"/>
<path d="M118.89 27.8641C118.89 28.875 119.123 29.4193 120.108 29.497V30.3265H113.965V29.497C114.95 29.4193 115.209 28.875 115.209 27.8641V14.6195C115.209 13.6087 114.95 13.0903 113.965 13.0126V12.1831L118.242 11.1723H118.89V27.8641Z" fill="white"/>
<path d="M126.053 27.8641C126.053 28.875 126.286 29.4193 127.271 29.497V30.3265H121.128V29.497C122.113 29.4193 122.372 28.875 122.372 27.8641V14.6195C122.372 13.6087 122.113 13.0903 121.128 13.0126V12.1831L125.405 11.1723H126.053V27.8641Z" fill="white"/>
<path d="M78.5343 35.9583C78.4984 36.4102 78.3392 36.7697 78.0516 37.0368C77.764 37.3038 77.3942 37.4373 76.9423 37.4373C76.4235 37.4373 76.0076 37.2627 75.6994 36.9135C75.3861 36.5643 75.2321 36.1021 75.2321 35.5217C75.2321 35.1725 75.2988 34.8592 75.4324 34.5716C75.5659 34.284 75.7662 34.0529 76.0332 33.8783C76.3003 33.7037 76.6136 33.6112 76.9731 33.6112C77.3582 33.6112 77.6972 33.7191 77.9848 33.9348C78.2724 34.1505 78.4419 34.4586 78.5035 34.8592H77.8667C77.8205 34.6435 77.7178 34.4689 77.5585 34.3456C77.3942 34.2224 77.199 34.1556 76.9628 34.1556C76.7163 34.1556 76.5109 34.2275 76.3414 34.361C76.1719 34.4997 76.0538 34.6692 75.9819 34.8695C75.91 35.0698 75.8792 35.2855 75.8792 35.5217C75.8792 35.7015 75.8997 35.8709 75.9408 36.025C75.9819 36.1842 76.0435 36.328 76.1257 36.4616C76.2078 36.5951 76.3157 36.6978 76.4595 36.7748C76.6033 36.857 76.7676 36.893 76.9577 36.893C77.502 36.893 77.8102 36.5848 77.8924 35.9583H78.5343ZM82.6721 33.6934V37.35H82.0301V35.7066H80.3559V37.35H79.7139V33.6934H80.3559V35.1468H82.0301V33.6934H82.6721ZM86.6763 33.6934V34.2326H84.6785V35.2033H86.5325V35.722H84.6785V36.8005H86.7071V37.35H84.0417V33.6934H86.6763ZM87.8929 33.6934H89.6236C89.9831 33.6934 90.281 33.7756 90.5121 33.9399C90.7381 34.1043 90.8562 34.361 90.8562 34.7103C90.8562 34.9311 90.7997 35.1211 90.697 35.2752C90.5891 35.4293 90.4402 35.5423 90.2502 35.609C90.3375 35.6296 90.4145 35.6604 90.4813 35.7015C90.5429 35.7426 90.5943 35.7888 90.6302 35.835C90.6662 35.8864 90.697 35.948 90.7227 36.0199C90.7432 36.0969 90.7586 36.1637 90.7689 36.2202C90.7791 36.2767 90.7843 36.3486 90.7946 36.441C90.7946 36.4667 90.7997 36.5129 90.8048 36.5797C90.81 36.6516 90.8151 36.6978 90.8151 36.7183C90.8151 36.7389 90.8202 36.78 90.8254 36.8313C90.8305 36.8878 90.8356 36.9289 90.8408 36.9494C90.8408 36.97 90.8459 37.0059 90.8562 37.047C90.8665 37.0881 90.8716 37.1241 90.8819 37.1446C90.887 37.1652 90.8973 37.1908 90.9075 37.2216C90.9178 37.2525 90.9281 37.273 90.9435 37.2935C90.9538 37.3141 90.9692 37.3346 90.9897 37.35H90.3015C90.2913 37.3398 90.281 37.3244 90.2707 37.3038C90.2604 37.2833 90.2553 37.2627 90.2502 37.2422C90.2399 37.2216 90.2348 37.2011 90.2348 37.1806C90.2296 37.16 90.2245 37.1343 90.2194 37.1035C90.2142 37.0727 90.2142 37.0419 90.2142 37.0214L90.2039 36.9289L90.1937 36.8365C90.1937 36.8159 90.1885 36.78 90.1885 36.7286C90.1834 36.6773 90.1834 36.6413 90.1834 36.6208C90.1629 36.3229 90.1012 36.1226 89.9934 36.0096C89.8855 35.8966 89.6801 35.8401 89.3822 35.8401H88.5297V37.35H87.8929V33.6934ZM88.5297 34.2172V35.3625H89.3771C89.5004 35.3625 89.6031 35.3574 89.6904 35.342C89.7725 35.3317 89.8599 35.306 89.9472 35.2701C90.0345 35.2341 90.1012 35.1725 90.1475 35.0903C90.1937 35.0081 90.2194 34.9054 90.2194 34.777C90.2194 34.6641 90.1988 34.5665 90.1577 34.4894C90.1166 34.4124 90.055 34.3559 89.978 34.3148C89.9009 34.2789 89.8239 34.2532 89.7417 34.2378C89.6596 34.2275 89.5671 34.2172 89.4593 34.2172H88.5297ZM92.7826 33.6934V37.35H92.1355V33.6934H92.7826ZM96.8055 34.7719H96.1944C96.1533 34.3456 95.8914 34.1299 95.3983 34.1299C95.1775 34.1299 95.008 34.1762 94.8848 34.2686C94.7615 34.361 94.6999 34.4843 94.6999 34.6384C94.6999 34.7873 94.741 34.89 94.8334 34.9414C94.9258 34.9979 95.1261 35.0646 95.4394 35.1417C95.5216 35.1674 95.5832 35.1828 95.6294 35.193C96.0352 35.2957 96.3125 35.3882 96.4614 35.4704C96.785 35.645 96.9493 35.9172 96.9493 36.2869C96.9493 36.4513 96.9185 36.5951 96.8672 36.7235C96.8107 36.857 96.7388 36.9649 96.6463 37.0522C96.5539 37.1395 96.4409 37.2114 96.3176 37.2679C96.1892 37.3295 96.0557 37.3706 95.9222 37.3963C95.7835 37.4219 95.6397 37.4322 95.4959 37.4322C95.0337 37.4322 94.6639 37.3244 94.3815 37.1035C94.0939 36.8878 93.9552 36.5643 93.9552 36.138H94.5869C94.5869 36.4051 94.6742 36.6054 94.8488 36.7337C95.0234 36.8621 95.2494 36.9238 95.5319 36.9238C95.7784 36.9238 95.9684 36.8775 96.1071 36.7748C96.2457 36.6721 96.3176 36.5335 96.3176 36.3486C96.3176 36.2356 96.2765 36.138 96.2046 36.0661C96.1327 35.9942 96.0506 35.9377 95.9684 35.9069C95.8811 35.8761 95.7322 35.835 95.5216 35.7785C95.4959 35.7734 95.4754 35.7682 95.4651 35.7631C95.008 35.6501 94.7101 35.5525 94.5663 35.4755C94.2685 35.3214 94.1093 35.0852 94.0887 34.7616V34.6897C94.0887 34.3662 94.2068 34.1094 94.4534 33.9142C94.6999 33.7191 95.0286 33.6215 95.4394 33.6215C95.8349 33.6215 96.1584 33.7191 96.4101 33.904C96.6566 34.094 96.7901 34.3816 96.8055 34.7719ZM101.07 33.6934V37.35H100.428V35.7066H98.7542V37.35H98.1122V33.6934H98.7542V35.1468H100.428V33.6934H101.07ZM103.097 33.6934V37.35H102.45V33.6934H103.097ZM107.454 33.6934V37.35H106.792L105.087 34.6589V37.35H104.481V33.6934H105.153L106.838 36.3897V33.6934H107.454ZM112.023 35.3933V37.35H111.612L111.515 36.9135C111.222 37.2627 110.842 37.4373 110.375 37.4373C109.861 37.4373 109.44 37.2627 109.122 36.9135C108.803 36.5643 108.644 36.1123 108.644 35.5474C108.644 34.9979 108.803 34.5408 109.127 34.171C109.445 33.8012 109.882 33.6164 110.431 33.6164C110.827 33.6164 111.171 33.7293 111.469 33.9502C111.766 34.1762 111.936 34.4792 111.977 34.8592H111.356C111.315 34.6435 111.212 34.4689 111.047 34.3456C110.883 34.2224 110.673 34.1556 110.426 34.1556C110.072 34.1556 109.794 34.2789 109.594 34.5254C109.389 34.7719 109.291 35.1109 109.291 35.5371C109.291 35.9685 109.389 36.3075 109.594 36.554C109.8 36.8005 110.082 36.9186 110.447 36.9186C110.765 36.9186 111.006 36.8211 111.181 36.6208C111.356 36.4256 111.443 36.1791 111.443 35.8864H110.457V35.3933H112.023ZM117.873 36.7954V37.35H115.367V33.6934H116.014V36.7954H117.873ZM119.59 33.6934V37.35H118.943V33.6934H119.59ZM123.515 33.6934V34.2378H121.63V35.2341H123.284V35.7528H121.63V37.35H120.983V33.6934H123.515ZM127.273 33.6934V34.2326H125.276V35.2033H127.13V35.722H125.276V36.8005H127.304V37.35H124.639V33.6934H127.273Z" fill="white"/>
<path d="M21.5447 28.7918L13.1092 37.2235C8.70162 32.9291 6.2049 30.5816 1.90935 26.0237C-0.420548 23.6938 -0.420548 19.9332 1.90935 17.6033C4.23925 15.2939 7.99979 15.2939 10.3093 17.6033C14.805 22.0114 17.2222 24.4235 21.5447 28.7918Z" fill="white"/>
<path d="M4.75031 28.7176L13.1502 37.1175C17.4687 32.8658 19.8905 30.5468 24.207 26.0607C26.5369 23.7513 26.5369 19.9703 24.207 17.6608C21.8771 15.3309 18.1166 15.3309 15.8071 17.6608C11.466 21.9597 9.05603 24.3888 4.75031 28.7176Z" fill="white"/>
<path d="M8.20226 12.2109C8.20226 13.5649 7.1104 14.6727 5.75073 14.6727C4.39105 14.6727 3.29919 13.5649 3.29919 12.2109C3.29919 10.8569 4.39105 9.76959 5.75073 9.76959C7.1104 9.76959 8.20226 10.8569 8.20226 12.2109Z" fill="white"/>
<path d="M22.8357 12.2109C22.8357 13.5649 21.7438 14.6727 20.3841 14.6727C19.0245 14.6727 17.9326 13.5649 17.9326 12.2109C17.9326 10.8569 19.0245 9.76959 20.3841 9.76959C21.7438 9.76959 22.8357 10.8569 22.8357 12.2109Z" fill="white"/>
<path d="M4.14735 28.3679L13.1005 20.3474L21.9534 28.383L13.1399 37.4627L4.14735 28.3679Z" fill="#CACACA"/>
<rect x="12.1479" y="27.4625" width="1.8857" height="1.8857" rx="0.314283" fill="#211D1D"/>
<rect x="12.1479" y="25.0369" width="1.8857" height="1.8857" rx="0.314283" fill="#211D1D"/>
<rect x="12.1479" y="30.0306" width="1.8857" height="1.8857" rx="0.314283" fill="#211D1D"/>
<rect x="14.5736" y="27.4625" width="1.8857" height="1.8857" rx="0.314283" fill="#211D1D"/>
<rect x="9.72217" y="27.4625" width="1.8857" height="1.8857" rx="0.314283" fill="#211D1D"/>
</g>
</g>
<defs>
<clipPath id="clip0_44_290">
<rect width="127.344" height="47.4346" fill="white" transform="translate(0.161804 0.282654)"/>
</clipPath>
<clipPath id="clip1_44_290">
<rect width="130.993" height="34.6638" fill="white" transform="translate(0.161926 6.48566)"/>
</clipPath>
</defs>
</svg>
