<svg width="98" height="48" viewBox="0 0 98 48" fill="none" xmlns="http://www.w3.org/2000/svg">
<g clip-path="url(#clip0_44_314)">
<g clip-path="url(#clip1_44_314)">
<path d="M97.7409 20.604H0.317505V39.0458H97.7409V20.604Z" fill="white" fill-opacity="0.04"/>
<path d="M13.4146 24.2121H22.4939C27.449 24.2121 30.5882 26.3104 30.5882 29.6106C30.5882 33.1239 27.5274 35.1724 22.3126 35.1724H13.3889V34.6841H14.2711C15.6715 34.6841 16.1127 34.3909 16.1127 33.4973V25.8705C16.1127 25.0088 15.5674 24.699 14.0898 24.699H13.4159V24.2121H13.4146ZM25.8144 28.8637C25.8144 25.5303 24.9836 24.7004 21.6374 24.7004C20.5738 24.7004 20.2112 24.912 20.2112 25.5137V33.7421C20.2112 34.4738 20.5224 34.6855 21.6901 34.6855C25.0364 34.6855 25.8144 33.8238 25.8144 30.0339V28.8637Z" fill="white"/>
<path d="M39.5128 24.0992H41.3287L46.4394 33.5144C46.8548 34.2945 47.5543 34.686 48.4893 34.686H48.879V35.1742H40.6819V34.686H41.3044C42.1866 34.686 42.6277 34.5394 42.6277 34.2627C42.6277 34.1493 42.602 34.0345 42.5235 33.9045L41.5114 32.0012H35.8825C35.4414 32.7011 35.3115 33.0096 35.3115 33.3512C35.3115 34.1963 36.1937 34.6362 38.0353 34.6846V35.1729H31.29V34.6846C32.0167 34.6362 33.5984 34.5062 34.6363 32.7011L39.5128 24.0992ZM38.7862 26.9126L36.3222 31.2225H41.096L38.7862 26.9126Z" fill="white"/>
<path d="M51.2136 34.6857H52.3286C53.6519 34.6857 53.9374 34.4741 53.9374 33.5142V25.8708C53.9374 24.9759 53.4963 24.6993 52.0958 24.6993H51.2393V24.211H60.7598V24.6993H59.8775C58.45 24.6993 57.9832 24.9925 57.9832 25.8708V33.546C57.9832 34.2777 58.6313 34.6844 59.7476 34.6844C62.3415 34.6844 64.5985 33.0578 65.0653 30.8627H65.8434V35.1726H51.2136V34.6857Z" fill="white"/>
<path d="M68.3084 35.174V34.6858H69.6317C70.9551 34.6858 71.2406 34.4741 71.2406 33.5142V25.8708C71.2406 24.9759 70.7995 24.6993 69.399 24.6993H68.3612L68.3355 24.211H83.7446V28.2443H82.9409C82.5512 27.1226 81.903 26.2927 80.9694 25.691C79.8544 24.9759 78.7909 24.6993 77.0779 24.6993C75.6774 24.6993 75.3405 24.8625 75.3405 25.561V29.3675H75.7816C76.2227 29.3675 77.0535 29.1724 77.546 28.9608C78.8694 28.3757 78.9722 27.449 79.0507 26.8957H79.8287V32.4741H79.025C79.025 31.4339 78.1942 29.8723 75.3418 29.8723V33.9223C75.3418 34.4423 75.7045 34.6872 76.5353 34.6872H77.9628C79.3375 34.6872 82.3468 33.8572 83.2805 31.0937H84.0842V35.1754H68.3084V35.174Z" fill="white"/>
<path d="M48.7016 16.7496L16.7983 17.4412L48.7016 18.1327L80.6048 17.4412L48.7016 16.7496Z" fill="white"/>
<path d="M18.4243 12.661V10.3549L18.1186 10.0824H17.6733V9.97608H21.508L21.5612 11.1923H21.4681L20.644 10.0824H19.5009L19.255 10.335V11.3252H19.7734L20.2586 10.6473H20.3516V12.0961H20.2586L19.7734 11.4515H19.255V12.6876L19.4744 12.9335H20.1655V13.0399H17.6733V12.9335H18.1585L18.4243 12.661ZM25.0968 12.661V10.3549L24.791 10.0824H24.3657V9.97608H26.6918V10.0824H26.2664L25.9607 10.3549V12.661L26.2266 12.9335H26.6918V13.0399H24.3657V12.9335H24.8309L25.0968 12.661ZM29.3723 13.0399V12.9335H29.7445L30.2297 12.342V10.4014C30.2297 10.3017 30.2297 10.0824 29.9505 10.0824H29.3723V9.97608H31.067L33.1339 12.3952V10.6739L32.7152 10.0824H32.2899V9.97608H34.1308V10.0824H33.7985L33.2735 10.6739V13.0399H32.589L30.4025 10.4878H30.3692V12.342L30.8743 12.9335H31.2731V13.0399H29.3723ZM39.0803 12.9335L39.2332 12.7341L38.974 12.0961H37.5052L37.3192 12.4218L37.5651 12.9335H37.811V13.0399H36.5017V12.9335C36.721 12.8737 36.9337 12.7474 37.0733 12.5015L38.562 9.89633H38.8876L40.0506 12.6212C40.1836 12.9335 40.569 12.9335 40.6953 12.9335V13.0399H38.6085V12.9335H39.0803ZM37.585 11.9499H38.9009L38.3692 10.7138C38.3626 10.7071 38.3493 10.6938 38.3293 10.6938C38.3094 10.6938 38.2961 10.7005 38.2762 10.7271L37.585 11.9499ZM43.1808 13.0399V12.9335H43.553L44.0382 12.342V10.4014C44.0382 10.3017 44.0382 10.0824 43.759 10.0824H43.1808V9.97608H44.8755L46.9424 12.3952V10.6739L46.5237 10.0824H46.0984V9.97608H47.9393V10.0824H47.607L47.082 10.6739V13.0399H46.3975L44.211 10.4878H44.1777V12.342L44.6828 12.9335H45.0816V13.0399H43.1808ZM53.5971 10.2153L54.0424 9.90962H54.1222V11.2654H54.0424C53.9892 11.0261 53.6902 10.0027 52.6933 10.0027C51.9224 10.0027 51.7097 10.6074 51.7097 11.3917C51.7097 12.0828 51.7097 13.0133 52.7332 13.0133C53.4376 13.0133 54.0158 12.5015 54.0624 11.7705H54.1687C54.1687 12.1227 53.9228 13.1196 52.6335 13.1196C51.6898 13.1196 50.8191 12.4882 50.8191 11.4914C50.8191 10.5742 51.703 9.89633 52.5737 9.89633C53.1585 9.89633 53.4376 10.1024 53.5971 10.2153ZM57.9435 12.661V10.3549L57.6378 10.0824H57.2125V9.97608H59.5386V10.0824H59.1132L58.8075 10.3549V12.661L59.0733 12.9335H59.5386V13.0399H57.2125V12.9335H57.6777L57.9435 12.661ZM62.9767 12.661V10.3549L62.671 10.0824H62.2257V9.97608H65.9342L65.9807 11.1325H65.8744L65.1034 10.0824H64.0534L63.8075 10.335V11.3252H64.2926L64.8908 10.634H64.9705V12.1227H64.8908L64.286 11.4515H63.8075V12.6876L64.0268 12.9335H65.037L65.9142 11.8702H65.994V13.0399H62.2257V12.9335H62.7109L62.9767 12.661ZM69.6093 12.661V10.3549L69.3036 10.0824H68.8185V9.97608H71.5101C72.075 9.97608 72.8658 10.0691 72.8658 10.7138C72.8658 11.2521 72.1348 11.3451 71.7626 11.3917C71.4569 11.4315 71.4104 11.4382 71.4104 11.5046C71.4104 11.6309 71.6962 11.7306 72.2145 11.7306L72.4737 12.6079C72.5535 12.8671 72.7196 12.9335 72.7861 12.9335H73.012V13.0399H71.7626L71.3639 11.8037C71.3173 11.6641 71.1711 11.4781 70.8322 11.4781H70.4068V12.6876L70.686 12.9335H71.118V13.0399H68.8185V12.9335H69.3435L69.6093 12.661ZM70.4068 10.335V11.3717C71.2775 11.3717 71.9753 11.3717 71.9753 10.7071C71.9753 10.3948 71.8557 10.0824 71.2708 10.0824H70.7258L70.4068 10.335ZM78.2602 12.9335L78.4131 12.7341L78.1539 12.0961H76.6851L76.499 12.4218L76.7449 12.9335H76.9908V13.0399H75.6816V12.9335C75.9009 12.8737 76.1136 12.7474 76.2531 12.5015L77.7418 9.89633H78.0675L79.2305 12.6212C79.3634 12.9335 79.7489 12.9335 79.8752 12.9335V13.0399H77.7884V12.9335H78.2602ZM76.7649 11.9499H78.0808L77.5491 10.7138C77.5425 10.7071 77.5292 10.6938 77.5092 10.6938C77.4893 10.6938 77.476 10.7005 77.4561 10.7271L76.7649 11.9499Z" fill="white"/>
</g>
</g>
<defs>
<clipPath id="clip0_44_314">
<rect width="97.4234" height="47.4346" fill="white" transform="translate(0.317505 0.282654)"/>
</clipPath>
<clipPath id="clip1_44_314">
<rect width="97.4234" height="29.8765" fill="white" transform="translate(0.317505 9.03986)"/>
</clipPath>
</defs>
</svg>
